<svg height="29.25" viewBox="0 0 29.257 29.25" width="29.257" xmlns="http://www.w3.org/2000/svg"><path d="m18 3.375h-.049a14.625 14.625 0 0 0 .007 29.25h.049a14.625 14.625 0 1 0 -.007-29.25zm12.67 13.641h-5.456a27.689 27.689 0 0 0 -.689-5.358 21.42 21.42 0 0 0 3.495-1.477 12.6 12.6 0 0 1 2.65 6.835zm-13.655 0h-4.345a24.992 24.992 0 0 1 .619-4.859 21.392 21.392 0 0 0 3.727.5zm0 1.969v4.352a21.482 21.482 0 0 0 -3.727.5 24.989 24.989 0 0 1 -.619-4.852zm1.969 0h4.31a24.845 24.845 0 0 1 -.619 4.845 20.988 20.988 0 0 0 -3.691-.492zm0-1.969v-4.36a21.483 21.483 0 0 0 3.691-.492 24.919 24.919 0 0 1 .619 4.852zm7.692-8.29a19.533 19.533 0 0 1 -2.676 1.09 14.518 14.518 0 0 0 -1.863-3.832 12.724 12.724 0 0 1 4.54 2.742zm-4.528 1.6a19.788 19.788 0 0 1 -3.164.422v-5.165c1.196.647 2.363 2.383 3.164 4.739zm-5.132-4.771v5.182a19.447 19.447 0 0 1 -3.2-.429c.816-2.377 1.997-4.113 3.2-4.753zm-3.207.445a14.632 14.632 0 0 0 -1.849 3.8 19.973 19.973 0 0 1 -2.637-1.074 12.533 12.533 0 0 1 4.486-2.726zm-5.829 4.188a21 21 0 0 0 3.459 1.462 26.573 26.573 0 0 0 -.689 5.358h-5.413a12.532 12.532 0 0 1 2.643-6.82zm-2.651 8.8h5.414a27.618 27.618 0 0 0 .689 5.358 22.277 22.277 0 0 0 -3.459 1.454 12.6 12.6 0 0 1 -2.643-6.816zm3.987 8.29a19.678 19.678 0 0 1 2.644-1.083 14.684 14.684 0 0 0 1.849 3.805 12.845 12.845 0 0 1 -4.493-2.726zm4.5-1.589a19.549 19.549 0 0 1 3.2-.429v5.189c-1.21-.644-2.384-2.387-3.2-4.764zm5.168 4.732v-5.172a19.788 19.788 0 0 1 3.164.422c-.801 2.363-1.968 4.099-3.164 4.746zm3.164-.4a14.518 14.518 0 0 0 1.863-3.832 19.211 19.211 0 0 1 2.672 1.1 12.87 12.87 0 0 1 -4.535 2.727zm5.871-4.2a21.42 21.42 0 0 0 -3.495-1.477 27.545 27.545 0 0 0 .689-5.351h5.457a12.542 12.542 0 0 1 -2.65 6.819z" fill="#003f3f" transform="translate(-3.375 -3.375)"/></svg>