<?xml version="1.0" encoding="UTF-8" standalone="no"?>
<!DOCTYPE svg PUBLIC "-//W3C//DTD SVG 1.1//EN" "http://www.w3.org/Graphics/SVG/1.1/DTD/svg11.dtd">
<svg width="100%" height="100%" viewBox="0 0 36 36" version="1.1" xmlns="http://www.w3.org/2000/svg" xmlns:xlink="http://www.w3.org/1999/xlink" xml:space="preserve" xmlns:serif="http://www.serif.com/" style="fill-rule:evenodd;clip-rule:evenodd;stroke-linecap:round;stroke-linejoin:round;stroke-miterlimit:2;">
    <g transform="matrix(1,0,0,1,-140,-201)">
        <g id="icon-study-area" transform="matrix(0.0280811,0,0,0.0247253,62.1591,184.459)">
            <rect x="2772" y="669" width="1282" height="1456" style="fill:none;"/>
            <g transform="matrix(0.112398,0,0,0.112398,3027.97,1276.9)">
                <g transform="matrix(148.38,0,0,168.519,-587957,-752207)">
                    <path d="M4019.6,4502.72L4019.6,4462.72C4019.6,4461.09 4018.23,4459.75 4016.55,4459.75L3985.99,4459.75" style="fill:none;stroke:#173f39;stroke-width:2.13px;"/>
                </g>
                <g transform="matrix(148.38,0,0,168.519,-587957,-752207)">
                    <path d="M3957.32,4459.75L3954.49,4459.75C3952.81,4459.75 3951.44,4461.09 3951.44,4462.72L3951.44,4502.72" style="fill:none;stroke:#173f39;stroke-width:2.13px;"/>
                </g>
                <g transform="matrix(148.38,0,0,168.519,-587957,-752207)">
                    <path d="M4000.13,4468.69L4000.13,4502.71" style="fill:none;stroke:#173f39;stroke-width:2.13px;"/>
                </g>
                <g transform="matrix(148.38,0,0,168.519,-587957,-752207)">
                    <path d="M4000.13,4477.69L4019.6,4477.69" style="fill:none;stroke:#173f39;stroke-width:2.13px;"/>
                </g>
                <g transform="matrix(148.38,0,0,168.519,-587957,-752207)">
                    <path d="M4000.13,4487.07L4019.6,4487.07" style="fill:none;stroke:#173f39;stroke-width:2.13px;"/>
                </g>
                <g transform="matrix(148.38,0,0,168.519,-587957,-752207)">
                    <path d="M4000.13,4496.45L4019.6,4496.45" style="fill:none;stroke:#173f39;stroke-width:2.13px;"/>
                </g>
                <g transform="matrix(148.38,0,0,168.519,-587957,-752207)">
                    <path d="M4008.26,4473.28L4011.47,4473.28" style="fill:none;stroke:#173f39;stroke-width:2.13px;"/>
                </g>
                <g transform="matrix(148.38,0,0,168.519,-587957,-752207)">
                    <path d="M4008.26,4482.66L4011.47,4482.66" style="fill:none;stroke:#173f39;stroke-width:2.13px;"/>
                </g>
                <g transform="matrix(148.38,0,0,168.519,-587957,-752207)">
                    <path d="M4008.26,4492.04L4011.47,4492.04" style="fill:none;stroke:#173f39;stroke-width:2.13px;"/>
                </g>
                <g transform="matrix(148.38,0,0,168.519,-587957,-752207)">
                    <path d="M3951.44,4467.8L4019.6,4467.8" style="fill:none;stroke:#173f39;stroke-width:2.13px;"/>
                </g>
                <g transform="matrix(148.38,0,0,168.519,-587957,-752207)">
                    <rect x="3963.88" y="4445.44" width="15.33" height="8.01" style="fill:none;stroke:#173f39;stroke-width:2px;"/>
                </g>
                <g transform="matrix(148.38,0,0,168.519,-587957,-752207)">
                    <path d="M3982.67,4441.09L3960.43,4441.09C3959.69,4441.09 3959.09,4441.69 3959.09,4442.42L3959.09,4456.46C3959.09,4457.2 3959.69,4457.8 3960.43,4457.8L3965.51,4457.8L3966.66,4458.27L3976.83,4458.27L3977.98,4457.8L3982.67,4457.8C3983.4,4457.8 3984,4457.2 3984,4456.46L3984,4442.42C3984,4441.69 3983.4,4441.09 3982.67,4441.09Z" style="fill:none;stroke:#173f39;stroke-width:2px;"/>
                </g>
                <g transform="matrix(148.38,0,0,168.519,-587957,-752207)">
                    <path d="M3977.96,4457.82L3986.35,4457.82L3985.44,4462.65L3958.23,4462.65L3957.32,4457.82L3965.53,4457.82" style="fill:none;stroke:#173f39;stroke-width:2px;"/>
                </g>
            </g>
        </g>
    </g>
</svg>
